<?xml version="1.0" encoding="iso-8859-1"?>
<!-- Generator: Adobe Illustrator 19.0.0, SVG Export Plug-In . SVG Version: 6.00 Build 0)  -->
<svg version="1.1" id="Layer_1" xmlns="http://www.w3.org/2000/svg" xmlns:xlink="http://www.w3.org/1999/xlink" x="0px" y="0px"
	 viewBox="0 0 511.999 511.999" style="enable-background:new 0 0 511.999 511.999;" xml:space="preserve">
<path style="fill:#7E7F85;" d="M429.807,19.073c-31.32-31.331-84.143-22.895-103.961,16.753l-19.98,39.958l80.222,60.591
	l26.867-13.434C452.593,103.112,461.139,50.405,429.807,19.073z"/>
<path style="fill:#7F8189;" d="M195.637,35.825C175.809-3.819,123.007-12.253,91.67,19.073
	c-31.337,31.338-22.783,84.043,16.857,103.869l19.321,9.658l87.741-56.864L195.637,35.825z"/>
<path style="fill:#D8B68A;" d="M406.171,42.709c-15.193-15.204-40.834-11.119-50.422,8.069l-16.949,33.895l32.336,21.798
	l26.867-13.434C417.182,83.449,421.376,57.926,406.171,42.709z"/>
<path style="fill:#E6C892;" d="M165.733,50.777c-9.557-19.127-35.196-23.324-50.427-8.069c-15.22,15.232-10.997,40.751,8.172,50.329
	l19.321,9.658l38.822-20.14L165.733,50.777z"/>
<path style="fill:#85878D;" d="M408.214,428.871l-27.746,55.382c-8.579,17.16-25.74,27.746-44.794,27.746H176.326
	c-19.055,0-36.215-10.586-44.794-27.746l-27.746-55.382c-4.124-8.246-0.781-18.275,7.465-22.397h289.499
	C408.995,410.598,412.339,420.626,408.214,428.871z"/>
<path style="fill:#7E7F85;" d="M408.214,428.871l-27.746,55.382c-8.579,17.16-25.74,27.746-44.794,27.746H256V406.473h144.75
	C408.995,410.598,412.339,420.626,408.214,428.871z"/>
<path style="fill:#A3A5AE;" d="M419.357,229.967l-19.166-96.277c-7.8-38.89-42.343-67.193-82.012-67.193H193.821
	c-39.669,0-74.212,28.304-82.012,67.193l-19.166,96.054c-32.429,20.838-53.934,57.164-53.934,98.394
	c0,64.519,52.484,117.003,117.003,117.003h200.577c64.519,0,117.003-52.484,117.003-117.003
	C473.291,286.909,451.786,250.693,419.357,229.967z"/>
<path style="fill:#999CA4;" d="M473.291,328.138c0,64.519-52.484,117.003-117.003,117.003H256V66.497h62.18
	c39.669,0,74.212,28.304,81.906,66.659l19.166,96.277C451.786,250.693,473.291,286.909,473.291,328.138z"/>
<path style="fill:#616267;" d="M356.288,378.309c-27.651,0-50.144-22.494-50.144-50.144s22.494-50.144,50.144-50.144
	c27.651,0,50.144,22.494,50.144,50.144S383.94,378.309,356.288,378.309z"/>
<g>
	<path style="fill:#696B6F;" d="M155.711,378.309c-27.651,0-50.144-22.494-50.144-50.144s22.494-50.144,50.144-50.144
		s50.144,22.494,50.144,50.144S183.363,378.309,155.711,378.309z"/>
	<circle style="fill:#696B6F;" cx="194.794" cy="150.31" r="16.715"/>
</g>
<circle style="fill:#616267;" cx="317.368" cy="150.31" r="16.715"/>
<g>
</g>
<g>
</g>
<g>
</g>
<g>
</g>
<g>
</g>
<g>
</g>
<g>
</g>
<g>
</g>
<g>
</g>
<g>
</g>
<g>
</g>
<g>
</g>
<g>
</g>
<g>
</g>
<g>
</g>
</svg>
