<svg width="219" height="271" xmlns="http://www.w3.org/2000/svg">

 <g id="imagebot_2">
  <path transform="matrix(1 0 0 1 -0.98 -9)" stroke-linejoin="round" stroke="#010101" stroke-width="4" stroke-linecap="round" fill="#939dac" d="M208.59,247.77C208.6,270.45 190.22,273.34 167.54,273.34S126.47,270.45 126.48,247.77C126.47,225.09 145.63,212.57 167.54,206.7C201.62,197.57 208.6,225.09 208.59,247.77z" id="imagebot_28"/>
  <path transform="matrix(1 0 0 1 -0.98 -9)" stroke-linejoin="round" stroke="#010101" stroke-width="4" stroke-linecap="round" fill="#939dac" d="M14.479,247.77C14.472,270.45 32.856,273.34 55.536,273.34C78.217,273.34 96.599,270.45 96.594,247.77C96.6,225.09 77.444,212.57 55.536,206.7C21.456,197.57 14.473,225.09 14.479,247.77z" id="imagebot_35"/>
  <path transform="translate(0 2) matrix(1 0 0 1 -0.98 1)" stroke-linejoin="round" stroke="#010101" stroke-width="4" stroke-linecap="round" fill="#939dac" d="M192.9,91.985C191.86,77.578 188.2,64.058 182.51,52.088C188.92,47.287 193.21,38.788 193.21,29.117C193.21,14.15 183,2 170.43,2C162.3,2 155.19,7.104 151.16,14.733C139.14,6.639 125.27,2 110.49,2C95.709,2 81.863,6.643 69.852,14.733C65.82,7.104 58.712,2 50.583,2C38.007,2 27.795,14.15 27.795,29.117C27.795,38.801 32.071,47.291 38.496,52.088C32.805,64.058 29.148,77.579 28.109,91.987C17.622,103.02 11.505,116.27 11.505,130.52C11.505,168.91 55.828,200.02 110.5,200.02C165.18,200.02 209.5,168.91 209.5,130.52C209.5,116.27 203.39,103.02 192.9,91.985z" id="imagebot_19"/>
  <path transform="translate(-1 0) matrix(0.968484 0 0 1 1.0824 -2)" stroke-linejoin="round" stroke="#010101" stroke-width="4" stroke-linecap="round" fill="#939dac" d="M 221.1406684904027 147.27 C 221.16039472507717 207.78 172.79166730331661 256.84 113.10994429575683 256.84 C 53.4262486647296 256.84 5.049630749099266 207.78 5.069356983773719 147.27 C 5.050617060832988 86.763 53.4262486647296 37.7 113.10994429575683 37.7 C 172.78180418597938 37.702 221.16039472507717 86.763 221.1406684904027 147.27 z" id="imagebot_38"/>
  <path transform="matrix(0.968484 0 0 1 1.0824 -2)" fill-opacity="0.3137" fill="#010101" d="M220.65,156.86C199.82,202.55 153.72,234.33 100.21,234.33C69.887,234.33 41.963,224.12 19.651,206.95C39.185,236.98 73.029,256.83 111.53,256.83C168.8,256.83 215.81,212.88 220.65,156.86z" id="imagebot_37"/>
  <title>imagebot_2</title>
  <path transform="rotate(89.6573 106.744 151.728) matrix(0.244849 0 0 0.244849 70 115)" d="M228.23334,205.75699C215.26869,183.0371 165.48433,171.75739 67.35255,169.30635L0.99549,167.64896L0.99549,147.76395L0.99549,127.87913L51.08148,127.87913C110.12689,127.87913 152.34651,123.79662 186.79524,114.75581C207.12425,109.42072 213.87974,106.01862 223.06883,96.48856L234.36082,84.77735L266.74935,117.27642L299.13787,149.77567L266.38674,182.49982L233.63552,215.22415L228.23333,205.75699L228.23334,205.75699z" id="imagebot_39" stroke-opacity="null" stroke-linecap="round" stroke-linejoin="round" stroke-dasharray="null" stroke-width="3" stroke="#000000" fill="#000000"/>
 </g>
 <metadata>image/svg+xmlOpenclipartCartoon hippo2009-03-16T14:39:36Cartoon hippo. Remixed from Lemmling's Cartoon Elephant and Cartoon Beaver.https://openclipart.org/detail/22337/cartoon-hippo-by-studiofibonacciStudioFibonacciafricaanimalcartoonhippohippopotamusmammalremix</metadata>
</svg>