<?xml version="1.0"?>
<svg xmlns:rdf="http://www.w3.org/1999/02/22-rdf-syntax-ns#" xmlns="http://www.w3.org/2000/svg" xmlns:cc="http://creativecommons.org/ns#" xmlns:dc="http://purl.org/dc/elements/1.1/" xmlns:svg="http://www.w3.org/2000/svg" id="svg3662" viewBox="0 0 45.582 38.216" version="1.1">
  <defs id="defs3664">
    <filter id="filter3636" width="1.2978" y="-.61785" x="-.14892" height="2.2357" color-interpolation-filters="sRGB">
      <feGaussianBlur id="feGaussianBlur3638" stdDeviation="2.1793335"/>
    </filter>
  </defs>
  <g id="layer1" fill-rule="evenodd" transform="translate(-274.35 -438.97)">
    <path id="path3629" filter="url(#filter3636)" d="m314.7 467.72c0 2.3377-7.8621 4.2327-17.561 4.2327-9.6984 0-17.561-1.895-17.561-4.2327s7.8621-4.2327 17.561-4.2327c9.4935 0 17.268 1.8186 17.553 4.1059l0.008 0.12684z" style="color:#000000" fill="#008000"/>
    <path id="path2419" d="m296.93 471.6-0.006-17.12-8.3522-10.534-7.0924 6.3955 0.8078 16.608 14.643 4.6498z" fill="#d3e2ff"/>
    <path id="path2421" d="m296.93 471.6-0.004-17.278 15.485-4.1491-0.2221 15.288-15.259 6.1387z" fill="#a6aebd"/>
    <path id="path2473" stroke-linejoin="bevel" d="m278.05 452.48 10.662-9.0656 11.217 15.143 16.149-6.0774-9.7239-11.287-17.711 2.1511-10.592 9.1355z" stroke="#d90808" stroke-width="1px" fill="#f00"/>
    <path id="path3245" d="m299.49 448.2-0.004-6.5437 3.0057-1.1073 0.1242 6.0494-3.1261 1.6016z" fill="#c7c5c7"/>
    <path id="path3247" d="m299.64 448.27-0.16981-6.3557-2.5379-1.2954v4.5324l2.7077 3.1187z" fill="#e8f0ff"/>
    <path id="path3249" d="m299.33 441.43 3.2149-1.215-2.7923-0.74312-2.8229 0.61826 2.4002 1.3399z" stroke="#a5a5a5" stroke-width="1px" fill="#e8f0ff"/>
    <path id="path3251" d="m286.66 468.24-0.68076-10.984 5.3379 1.1523-0.25873 11.125-4.3984-1.2936z" fill="#6d6d77"/>
  </g>
  <metadata>
    <rdf:RDF>
      <cc:Work>
        <dc:format>image/svg+xml</dc:format>
        <dc:type rdf:resource="http://purl.org/dc/dcmitype/StillImage"/>
        <cc:license rdf:resource="http://creativecommons.org/licenses/publicdomain/"/>
        <dc:publisher>
          <cc:Agent rdf:about="http://openclipart.org/">
            <dc:title>Openclipart</dc:title>
          </cc:Agent>
        </dc:publisher>
        <dc:title>house</dc:title>
        <dc:date>2010-06-27T14:52:09</dc:date>
        <dc:description>building, clip art, clipart, home, house, </dc:description>
        <dc:source>http://openclipart.org/detail/68863/house-by-buggi</dc:source>
        <dc:creator>
          <cc:Agent>
            <dc:title>buggi</dc:title>
          </cc:Agent>
        </dc:creator>
        <dc:subject>
          <rdf:Bag>
            <rdf:li>building</rdf:li>
            <rdf:li>clip art</rdf:li>
            <rdf:li>clipart</rdf:li>
            <rdf:li>home</rdf:li>
            <rdf:li>house</rdf:li>
          </rdf:Bag>
        </dc:subject>
      </cc:Work>
      <cc:License rdf:about="http://creativecommons.org/licenses/publicdomain/">
        <cc:permits rdf:resource="http://creativecommons.org/ns#Reproduction"/>
        <cc:permits rdf:resource="http://creativecommons.org/ns#Distribution"/>
        <cc:permits rdf:resource="http://creativecommons.org/ns#DerivativeWorks"/>
      </cc:License>
    </rdf:RDF>
  </metadata>
</svg>
